<svg width="126" height="314" viewBox="0 0 126 314" fill="none" xmlns="http://www.w3.org/2000/svg">
<path d="M124 80H0.999997" stroke="#CCCCCC" stroke-width="2" stroke-linecap="round"/>
<path d="M124 157.5H0.999997" stroke="#CCCCCC" stroke-width="2" stroke-linecap="round"/>
<path d="M124 1H0.999997" stroke="#CCCCCC" stroke-width="2" stroke-linecap="round"/>
<path d="M124.373 235H1.37329" stroke="#CCCCCC" stroke-width="2" stroke-linecap="round"/>
<path d="M124.373 313H1.37329" stroke="#CCCCCC" stroke-width="2" stroke-linecap="round"/>
<path d="M83.9998 96H39.9998" stroke="#CCCCCC" stroke-width="2" stroke-linecap="round"/>
<path d="M83.9998 17H39.9998" stroke="#CCCCCC" stroke-width="2" stroke-linecap="round"/>
<path d="M84.373 219H40.373" stroke="#CCCCCC" stroke-width="2" stroke-linecap="round"/>
<path d="M84.373 297H40.373" stroke="#CCCCCC" stroke-width="2" stroke-linecap="round"/>
<path d="M84 112H40" stroke="#CCCCCC" stroke-width="2" stroke-linecap="round"/>
<path d="M84 33H40" stroke="#CCCCCC" stroke-width="2" stroke-linecap="round"/>
<path d="M84.3733 203H40.3733" stroke="#CCCCCC" stroke-width="2" stroke-linecap="round"/>
<path d="M84.3733 281H40.3733" stroke="#CCCCCC" stroke-width="2" stroke-linecap="round"/>
<path d="M84 127H40" stroke="#CCCCCC" stroke-width="2" stroke-linecap="round"/>
<path d="M84 48H40" stroke="#CCCCCC" stroke-width="2" stroke-linecap="round"/>
<path d="M84.3733 188H40.3733" stroke="#CCCCCC" stroke-width="2" stroke-linecap="round"/>
<path d="M84.3733 266H40.3733" stroke="#CCCCCC" stroke-width="2" stroke-linecap="round"/>
<path d="M84 143H40" stroke="#CCCCCC" stroke-width="2" stroke-linecap="round"/>
<path d="M84 64H40" stroke="#CCCCCC" stroke-width="2" stroke-linecap="round"/>
<path d="M84.3733 172H40.3733" stroke="#CCCCCC" stroke-width="2" stroke-linecap="round"/>
<path d="M84.3733 250H40.3733" stroke="#CCCCCC" stroke-width="2" stroke-linecap="round"/>
</svg>
