<svg width="24" height="24" viewBox="0 0 24 24" fill="none" xmlns="http://www.w3.org/2000/svg">
<rect width="24" height="24" rx="12" fill="#464646"/>
<path d="M12.3848 10.8158C11.9207 10.8158 11.4756 11.0099 11.1474 11.3553C10.8192 11.7008 10.6348 12.1693 10.6348 12.6579C10.6348 13.1465 10.8192 13.615 11.1474 13.9605C11.4756 14.3059 11.9207 14.5 12.3848 14.5C12.849 14.5 13.2941 14.3059 13.6223 13.9605C13.9505 13.615 14.1348 13.1465 14.1348 12.6579C14.1348 12.1693 13.9505 11.7008 13.6223 11.3553C13.2941 11.0099 12.849 10.8158 12.3848 10.8158ZM12.3848 11.5526C12.6633 11.5526 12.9304 11.6691 13.1273 11.8764C13.3242 12.0836 13.4348 12.3648 13.4348 12.6579C13.4348 12.951 13.3242 13.2322 13.1273 13.4394C12.9304 13.6467 12.6633 13.7632 12.3848 13.7632C12.1064 13.7632 11.8393 13.6467 11.6424 13.4394C11.4455 13.2322 11.3348 12.951 11.3348 12.6579C11.3348 12.3648 11.4455 12.0836 11.6424 11.8764C11.8393 11.6691 12.1064 11.5526 12.3848 11.5526Z" fill="white"/>
<path d="M10.8547 7L10.8033 7.00098C10.4732 7.0149 10.161 7.16222 9.93218 7.41209C9.70334 7.66196 9.57555 7.995 9.57558 8.34146V8.46341H8.52907C8.3611 8.46341 8.19477 8.49811 8.03959 8.56553C7.88441 8.63294 7.7434 8.73175 7.62463 8.85632C7.50586 8.98089 7.41164 9.12877 7.34736 9.29152C7.28308 9.45428 7.25 9.62872 7.25 9.80488V15.6585C7.25 15.8347 7.28308 16.0091 7.34736 16.1719C7.41164 16.3346 7.50586 16.4825 7.62463 16.6071C7.7434 16.7317 7.88441 16.8305 8.03959 16.8979C8.19477 16.9653 8.3611 17 8.52907 17H15.9709C16.1389 17 16.3052 16.9653 16.4604 16.8979C16.6156 16.8305 16.7566 16.7317 16.8754 16.6071C16.9941 16.4825 17.0884 16.3346 17.1526 16.1719C17.2169 16.0091 17.25 15.8347 17.25 15.6585V9.80488L17.2491 9.75098C17.2358 9.40479 17.0953 9.07742 16.8571 8.83741C16.6188 8.59741 16.3013 8.46339 15.9709 8.46341H14.9244V8.34146C14.9244 8.1653 14.8913 7.99086 14.8271 7.82811C14.7628 7.66535 14.6686 7.51747 14.5498 7.39291C14.431 7.26834 14.29 7.16953 14.1348 7.10211C13.9796 7.0347 13.8133 7 13.6453 7H10.8547ZM10.8547 7.73171H13.6453C13.7995 7.73171 13.9474 7.79595 14.0565 7.9103C14.1655 8.02465 14.2267 8.17975 14.2267 8.34146V8.82927C14.2267 8.9263 14.2635 9.01936 14.3289 9.08797C14.3943 9.15658 14.4831 9.19512 14.5756 9.19512H15.9709C16.0473 9.19512 16.1229 9.21089 16.1934 9.24154C16.264 9.27218 16.3281 9.31709 16.382 9.37372C16.436 9.43034 16.4789 9.49756 16.5081 9.57153C16.5373 9.64551 16.5523 9.7248 16.5523 9.80488V15.6585C16.5523 15.7386 16.5373 15.8179 16.5081 15.8919C16.4789 15.9659 16.436 16.0331 16.382 16.0897C16.3281 16.1463 16.264 16.1912 16.1934 16.2219C16.1229 16.2525 16.0473 16.2683 15.9709 16.2683H8.52907C8.45272 16.2683 8.37712 16.2525 8.30658 16.2219C8.23604 16.1912 8.17195 16.1463 8.11796 16.0897C8.06397 16.0331 8.02115 15.9659 7.99193 15.8919C7.96271 15.8179 7.94767 15.7386 7.94767 15.6585V9.80488C7.94767 9.7248 7.96271 9.64551 7.99193 9.57153C8.02115 9.49756 8.06397 9.43034 8.11796 9.37372C8.17195 9.31709 8.23604 9.27218 8.30658 9.24154C8.37712 9.21089 8.45272 9.19512 8.52907 9.19512H9.92442C10.0169 9.19512 10.1057 9.15658 10.1711 9.08797C10.2365 9.01936 10.2733 8.9263 10.2733 8.82927V8.34146C10.2733 8.17975 10.3345 8.02465 10.4435 7.9103C10.5526 7.79595 10.7005 7.73171 10.8547 7.73171Z" fill="white"/>
<path d="M15.4287 10.1579C15.5112 10.1579 15.5906 10.184 15.6504 10.2306C15.7101 10.2772 15.7457 10.3409 15.7496 10.4084C15.7536 10.4759 15.7257 10.5421 15.6717 10.5932C15.6177 10.6443 15.5417 10.6765 15.4595 10.683L15.4287 10.6842H14.5713C14.4888 10.6842 14.4094 10.6581 14.3496 10.6115C14.2899 10.5649 14.2543 10.5012 14.2504 10.4337C14.2464 10.3662 14.2743 10.3 14.3283 10.2489C14.3823 10.1978 14.4583 10.1656 14.5405 10.1591L14.5713 10.1579H15.4287Z" fill="white"/>
</svg>
