<svg width="17" height="17" viewBox="0 0 17 17" fill="none" xmlns="http://www.w3.org/2000/svg">
<path d="M8.12409 12.0632L2.81159 6.75067C2.76223 6.70131 2.72308 6.64271 2.69636 6.57822C2.66965 6.51373 2.6559 6.44461 2.6559 6.37481C2.6559 6.305 2.66965 6.23588 2.69636 6.17139C2.72308 6.1069 2.76223 6.04831 2.81159 5.99895C2.86095 5.94959 2.91954 5.91044 2.98403 5.88372C3.04852 5.85701 3.11764 5.84326 3.18745 5.84326C3.25725 5.84326 3.32637 5.85701 3.39086 5.88372C3.45535 5.91044 3.51395 5.94959 3.56331 5.99895L8.49995 10.9363L13.4366 5.99895C13.5363 5.89926 13.6715 5.84326 13.8124 5.84326C13.9534 5.84326 14.0886 5.89926 14.1883 5.99895C14.288 6.09863 14.344 6.23383 14.344 6.37481C14.344 6.51578 14.288 6.65098 14.1883 6.75067L8.87581 12.0632C8.82647 12.1126 8.76788 12.1517 8.70339 12.1785C8.63889 12.2052 8.56976 12.219 8.49995 12.219C8.43013 12.219 8.361 12.2052 8.29651 12.1785C8.23202 12.1517 8.17343 12.1126 8.12409 12.0632Z" fill="black"/>
</svg>
